<svg xmlns="http://www.w3.org/2000/svg" width="260" height="192.739" viewBox="0 0 260 192.739">
  <g id="Grupo_4" data-name="Grupo 4" transform="translate(0.278 -650.752)">
    <g id="undraw_current_location_re_j130" transform="translate(1.721 650.752)">
      <path id="Caminho_7" data-name="Caminho 7" d="M239.689,673.1c-.993,0-1.988.047-2.96.142l-.141.014c-6.447.656-11.163,4.462-10.969,8.854l.038.794c.025.5.051,1.042.073,1.64.012.3.362.522.8.522H385.107c11.181-.078,22.321-.177,33.109-.292a49,49,0,0,0,6.057-.361c3-.409,5.079-1.218,6.362-2.475h0c1.6-1.559,1.646-3.522,1.549-5.74-.2-4.479-.392-9.184-.586-13.875-.172-4.134-.343-8.257-.514-12.2-.106-2.343-.341-4.41-2.153-5.991-1.964-1.709-5.546-2.575-10.647-2.575H418.1c-15.986.065-31.825,6.393-39.414,15.746-.874,1.077-1.688,2.23-2.476,3.345a43.852,43.852,0,0,1-3.8,4.874,18.47,18.47,0,0,1-2.512,2.254c-.062.049-.132.1-.207.151-.171.128-.349.251-.523.361a17.12,17.12,0,0,1-3.2,1.677l-.112.043c-.085.035-.176.07-.268.1a18.794,18.794,0,0,1-1.978.609,27.756,27.756,0,0,1-9.776.522,41.866,41.866,0,0,1-9.721-2.28,100.311,100.311,0,0,1-9.456-4.181c-1.323-.642-2.692-1.3-4.059-1.933-.257-.118-.51-.234-.766-.349-1.67-.749-3.183-1.368-4.627-1.891a40.36,40.36,0,0,0-11.027-2.351,23.84,23.84,0,0,0-10.411,1.4,16.736,16.736,0,0,0-2.355,1.168c-3.472,2.076-5.613,5.14-7.683,8.1-2.575,3.685-5.238,7.5-10.5,9.472-6.067,2.282-14.923,1.334-21.188-.315-1.97-.518-3.937-1.115-5.84-1.692q-1.153-.35-2.307-.694c-1.512-.449-2.75-.794-3.895-1.085l-.362-.093c-.2-.05-.4-.1-.608-.149-1.36-.329-2.626-.587-3.874-.791l-.3-.049c-.592-.09-1.145-.164-1.687-.227l-.217-.025A30.141,30.141,0,0,0,239.689,673.1Z" transform="translate(-225.613 -492.33)" fill="#f2f2f2"/>
      <path id="Path_2996" data-name="Path 2996" d="M550.99,415.775a3.3,3.3,0,0,1-3.771-3.375l-10.948-4.207,4.957-3.546,9.636,4.539a3.318,3.318,0,0,1,.125,6.589Z" transform="translate(-450.554 -320.791)" fill="#ffb7b7"/>
      <path id="Path_2997" data-name="Path 2997" d="M471.709,353.076l1.709-6.03-.084-.057-16.012-10.877-13.841-13.888-8.063,3.221.529,2.552.035.031,18.4,16.483.017.008Z" transform="translate(-377.529 -261.111)" fill="#3f3d56"/>
      <path id="Caminho_8" data-name="Caminho 8" d="M216.854,334.2l-24.78-3.474,2.181-15.205H212.5Z" transform="translate(-139.077 -228.462)" fill="#ffb6b6"/>
      <path id="Caminho_9" data-name="Caminho 9" d="M129.283,601.609l5.083,1.181,6.975-19.044-7.5-1.743Z" transform="translate(-93.611 -421.416)" fill="#ffb6b6"/>
      <path id="Caminho_10" data-name="Caminho 10" d="M337.755,751.833l3.645.847,1.45-3.29.867,3.829,9.668,2.247a2.231,2.231,0,0,0,2.156-3.675l-6.482-7.126.809-3.479-8.234-1.4Z" transform="translate(-306.812 -563.456)" fill="#2f2e41"/>
      <path id="Caminho_11" data-name="Caminho 11" d="M242.956,610.5h5.219l2.483-20.129h-7.7Z" transform="translate(-175.919 -427.479)" fill="#ffb6b6"/>
      <path id="Caminho_12" data-name="Caminho 12" d="M458.586,762.42h3.742l.668-3.533,1.711,3.533h9.926a2.231,2.231,0,0,0,1.268-4.067l-7.927-5.474v-3.572l-8.337.5Z" transform="translate(-394.303 -570.352)" fill="#2f2e41"/>
      <path id="Caminho_13" data-name="Caminho 13" d="M377.92,456.955l24.234-1.928c7.151,16.7,2.6,43.372-2.892,73.392l-7.795,1.008-.6-48.238-19.54,44.876-8.124-.415Z" transform="translate(-325.236 -357.271)" fill="#2f2e41"/>
      <path id="Path_3002" data-name="Path 3002" d="M407.272,252.244v-8.2a10.986,10.986,0,1,0-21.972,0c-1.936,4.035-.725,5.953,0,8.2a1.477,1.477,0,0,0,1.475,1.475H405.8A1.478,1.478,0,0,0,407.272,252.244Z" transform="translate(-340.482 -196.548)" fill="#fcbc5d"/>
      <circle id="Ellipse_572" data-name="Ellipse 572" cx="8.055" cy="8.055" r="8.055" transform="translate(50.461 40.938)" fill="#ffb7b7"/>
      <path id="Path_3003" data-name="Path 3003" d="M427.18,252.445a8.7,8.7,0,0,0-8.69-8.69h-1.64a8.7,8.7,0,0,0-8.69,8.69v.164c1.228.84,2.394.962,3.465,0l1.182-3.309.236,3.309h1.791l.6-1.67.119,1.67c2.419,2.06,6.994,1.073,11.629,0Z" transform="translate(-357.79 -204.293)" fill="#fcbc5d"/>
      <path id="Path_3004" data-name="Path 3004" d="M392.1,349.918l20.508-.78,1.146-13.416c.884-2.456.9-4.566.042-6.267a6.273,6.273,0,0,0-3.463-2.993l-4.487-5.42a6.108,6.108,0,0,0-4.741-2.211l-11.66.08c-.281-.169-1.986-1.035-5.348.421-3.646,1.58-2.8,7.071-2.791,7.126l.008.052.04.035,7.755,6.533Z" transform="translate(-338.278 -258.415)" fill="#8980f5"/>
      <path id="Caminho_14" data-name="Caminho 14" d="M544.478,187.344c-13.234,14.914-53.05,17.758-78.967,45.134-8.689-26.461,3.62-72.138,15.887-89.557a38.576,38.576,0,0,1,53.751-9.328C552.569,145.86,558.619,171.409,544.478,187.344Z" transform="translate(-397.204 -119.43)" fill="#1c85a8"/>
      <circle id="Ellipse_577" data-name="Ellipse 577" cx="12.581" cy="12.581" r="12.581" transform="translate(102.629 28.445)" fill="#eee"/>
      <circle id="Ellipse_577-2" data-name="Ellipse 577" cx="8.24" cy="8.24" r="8.24" transform="translate(49.432 110.269)" fill="#1c85a8"/>
      <path id="Path_3011" data-name="Path 3011" d="M390.981,485.68a3.3,3.3,0,0,1,.174-5.057l-3.787-11.1,5.9,1.533,2.689,10.305a3.318,3.318,0,0,1-4.977,4.32Z" transform="translate(-342.736 -367.767)" fill="#ffb7b7"/>
      <path id="Path_3012" data-name="Path 3012" d="M382.449,384.1l5.725-2.551-1.923-19.363,1.791-19.525L380.4,338.53l-1.619,2.042v.046l-.858,24.69,0,.019Z" transform="translate(-335.896 -272.918)" fill="#8980f5"/>
      <path id="Caminho_15" data-name="Caminho 15" d="M851.906,557.858a6.8,6.8,0,0,1-2.721,3.661c-.207.149-.419.287-.635.417-.066.039-.132.08-.2.116s-.149.085-.224.124h-5.968c-.108-.218-.212-.439-.317-.657-2.558-5.375-4.354-11.175-4.048-17.082a21.869,21.869,0,0,1,1.427-6.691,17.354,17.354,0,0,1,8.744-9.823c.1-.047.21-.094.314-.138-.033.119-.066.235-.1.353a30.564,30.564,0,0,0-.933,4.853c-.017.127-.03.254-.041.384a32.022,32.022,0,0,0,1.026,11.779c0,.008.006.019.008.028q.352,1.271.817,2.5c.243.648.5,1.289.792,1.918C851.045,552.243,852.651,555.057,851.906,557.858Z" transform="translate(-668.854 -409.953)" fill="#e6e6e6"/>
      <path id="Caminho_16" data-name="Caminho 16" d="M860.49,527.537l-.174.229a27.072,27.072,0,0,0-3.068,5.176c-.044.091-.086.182-.121.276a26.99,26.99,0,0,0-2.158,8.068.419.419,0,0,0-.006.058c-.069.651-.11,1.308-.127,1.965a11.72,11.72,0,0,0,.395,3.653,6.558,6.558,0,0,0,1.506,2.6c.069.075.138.149.213.221.055.058.116.116.174.171.557.533,1.167,1.026,1.691,1.6a5.916,5.916,0,0,1,.648.828,4.112,4.112,0,0,1,.441,3.339,10.678,10.678,0,0,1-2.111,3.7c-.439.563-.891,1.131-1.283,1.733-.144.215-.276.433-.4.657h-.348c.116-.224.243-.441.381-.657,1.007-1.587,2.439-2.95,3.181-4.7a4.163,4.163,0,0,0,.019-3.67,4.876,4.876,0,0,0-.67-.933c-.505-.571-1.109-1.06-1.658-1.576-.138-.13-.273-.262-.4-.4a6.888,6.888,0,0,1-1.556-2.456,10.822,10.822,0,0,1-.535-3.623c0-.784.041-1.573.119-2.356.008-.1.019-.2.03-.3a27.8,27.8,0,0,1,5.427-13.584c.055-.077.113-.152.171-.226C860.39,527.17,860.608,527.386,860.49,527.537Z" transform="translate(-680.992 -409.581)" fill="#fff"/>
      <path id="Caminho_17" data-name="Caminho 17" d="M846.531,567.7a4.086,4.086,0,0,1-3.409-4.046.153.153,0,0,1,.3-.007,3.783,3.783,0,0,0,3.179,3.757c.194.031.118.327-.075.3Z" transform="translate(-672.737 -435.815)" fill="#fff"/>
      <path id="Caminho_18" data-name="Caminho 18" d="M862.1,595.43a7.875,7.875,0,0,0,3.182-4.776c.042-.192.337-.117.3.075a8.191,8.191,0,0,1-3.322,4.963c-.161.112-.317-.15-.156-.262Z" transform="translate(-686.429 -455.395)" fill="#fff"/>
      <path id="Caminho_19" data-name="Caminho 19" d="M863.577,546.931a2.313,2.313,0,0,0,2.178-.268c.16-.114.315.148.156.262a2.592,2.592,0,0,1-2.409.3.157.157,0,0,1-.11-.185A.153.153,0,0,1,863.577,546.931Z" transform="translate(-687.412 -423.602)" fill="#fff"/>
      <path id="Caminho_20" data-name="Caminho 20" d="M884.122,565.767c-.1.075-.2.149-.292.226a30.448,30.448,0,0,0-3.667,3.311c-.088.091-.177.185-.262.279l0,0a32.1,32.1,0,0,0-6.252,9.972l-.008.025-.008.022a31.571,31.571,0,0,0-1.388,4.531,37.405,37.405,0,0,1-1.14,4.572c-.08.223-.168.444-.262.657H858.572c.041-.218.085-.439.13-.657a44.231,44.231,0,0,1,2.908-9.3c.044-.1.088-.2.138-.3a29.883,29.883,0,0,1,2.376-4.235v0h0a26.219,26.219,0,0,1,1.6-2.122,21.828,21.828,0,0,1,5.165-4.481c.011-.008.025-.014.036-.022a17.34,17.34,0,0,1,12.855-2.558h0C883.9,565.715,884.009,565.74,884.122,565.767Z" transform="translate(-683.925 -437.141)" fill="#e6e6e6"/>
      <path id="Caminho_21" data-name="Caminho 21" d="M895.687,566.624c-.094.025-.188.052-.279.08a27.2,27.2,0,0,0-5.565,2.282c-.088.047-.177.1-.265.146a27.109,27.109,0,0,0-6.564,5.129.009.009,0,0,0,0,.006c-.022.022-.047.047-.066.069-.441.475-.866.968-1.269,1.476a11.8,11.8,0,0,0-1.882,3.154,6.532,6.532,0,0,0-.361,2.983c.008.1.022.2.036.3.011.08.022.16.036.243a14,14,0,0,1,.408,3.344,4.114,4.114,0,0,1-1.658,2.933,6.571,6.571,0,0,1-1.016.646,10.172,10.172,0,0,1-1.592.657h-1.084l.436-.124a13.3,13.3,0,0,0,1.526-.533,7.439,7.439,0,0,0,.828-.408,4.177,4.177,0,0,0,2.227-2.919,10.836,10.836,0,0,0-.35-3.4c-.033-.193-.063-.384-.08-.574a6.743,6.743,0,0,1,.235-2.886,10.781,10.781,0,0,1,1.755-3.217,23,23,0,0,1,1.512-1.807q.1-.112.207-.223a27.84,27.84,0,0,1,6.68-5.168h0a27.392,27.392,0,0,1,5.822-2.412h0c.091-.028.185-.055.276-.08C895.83,566.271,895.874,566.572,895.687,566.624Z" transform="translate(-695.503 -437.852)" fill="#fff"/>
      <path id="Caminho_22" data-name="Caminho 22" d="M901.289,581.264a4.086,4.086,0,0,1-.286-5.283c.119-.156.367.022.247.178a3.783,3.783,0,0,0,.276,4.913C901.662,581.215,901.424,581.405,901.289,581.264Z" transform="translate(-714.045 -444.808)" fill="#fff"/>
      <path id="Caminho_23" data-name="Caminho 23" d="M891.435,617.894a7.875,7.875,0,0,0,5.416-1.9c.149-.128.34.11.191.237a8.191,8.191,0,0,1-5.64,1.963c-.2-.008-.162-.311.033-.3Z" transform="translate(-707.601 -473.799)" fill="#fff"/>
      <path id="Caminho_24" data-name="Caminho 24" d="M929.049,575.559a2.313,2.313,0,0,0,1.9,1.1c.2.005.162.308-.033.3a2.591,2.591,0,0,1-2.105-1.209.157.157,0,0,1,.023-.214.153.153,0,0,1,.214.023Z" transform="translate(-734.761 -444.504)" fill="#fff"/>
      <path id="Caminho_25" data-name="Caminho 25" d="M582.466,701.6a6.8,6.8,0,0,1-2.721,3.661c-.207.149-.419.287-.635.417-.066.039-.132.08-.2.116s-.149.086-.224.124h-5.968c-.108-.218-.212-.439-.317-.657-2.558-5.375-4.354-11.175-4.048-17.082a21.87,21.87,0,0,1,1.426-6.691,17.354,17.354,0,0,1,8.744-9.823c.1-.047.21-.094.315-.138-.033.119-.066.234-.1.353a30.566,30.566,0,0,0-.933,4.854c-.017.127-.03.254-.041.384a32.023,32.023,0,0,0,1.026,11.779c0,.008.005.019.008.028q.352,1.271.817,2.5c.243.648.505,1.288.792,1.918C581.605,695.987,583.211,698.8,582.466,701.6Z" transform="translate(-473.759 -514.035)" fill="#e6e6e6"/>
      <path id="Caminho_26" data-name="Caminho 26" d="M591.05,671.281l-.174.229a27.08,27.08,0,0,0-3.068,5.176c-.044.091-.086.182-.121.276a26.986,26.986,0,0,0-2.158,8.068.419.419,0,0,0-.005.058c-.069.651-.11,1.308-.127,1.965a11.723,11.723,0,0,0,.395,3.653,6.559,6.559,0,0,0,1.507,2.6c.069.074.138.149.212.221.055.058.116.116.174.171.557.533,1.167,1.026,1.691,1.6a5.911,5.911,0,0,1,.648.828,4.113,4.113,0,0,1,.442,3.339,10.681,10.681,0,0,1-2.111,3.7c-.439.563-.891,1.131-1.283,1.733-.143.215-.276.433-.4.657h-.348c.116-.224.243-.441.381-.657,1.007-1.587,2.439-2.95,3.181-4.7a4.162,4.162,0,0,0,.019-3.67,4.883,4.883,0,0,0-.671-.933c-.5-.571-1.109-1.06-1.658-1.576-.138-.13-.273-.262-.4-.4a6.889,6.889,0,0,1-1.556-2.456,10.824,10.824,0,0,1-.535-3.623c0-.784.041-1.573.119-2.356.008-.1.019-.2.03-.3a27.8,27.8,0,0,1,5.427-13.584c.055-.077.113-.152.171-.226C590.95,670.915,591.168,671.13,591.05,671.281Z" transform="translate(-485.896 -513.663)" fill="#fff"/>
      <path id="Caminho_27" data-name="Caminho 27" d="M577.091,711.44a4.086,4.086,0,0,1-3.409-4.046.152.152,0,0,1,.3-.007,3.783,3.783,0,0,0,3.179,3.757C577.359,711.176,577.283,711.472,577.091,711.44Z" transform="translate(-477.642 -539.895)" fill="#fff"/>
      <path id="Caminho_28" data-name="Caminho 28" d="M592.658,739.174a7.874,7.874,0,0,0,3.182-4.776c.042-.192.337-.117.3.075a8.191,8.191,0,0,1-3.322,4.963C592.653,739.548,592.5,739.286,592.658,739.174Z" transform="translate(-491.333 -559.477)" fill="#fff"/>
      <path id="Caminho_29" data-name="Caminho 29" d="M594.136,690.675a2.312,2.312,0,0,0,2.178-.268c.16-.114.315.148.156.262a2.591,2.591,0,0,1-2.409.3.157.157,0,0,1-.11-.185.153.153,0,0,1,.185-.11Z" transform="translate(-492.316 -527.684)" fill="#fff"/>
      <path id="Caminho_30" data-name="Caminho 30" d="M614.682,709.511c-.1.075-.2.149-.293.226a30.453,30.453,0,0,0-3.667,3.311c-.088.091-.177.185-.262.279l0,0a32.1,32.1,0,0,0-6.252,9.972l-.008.025c0,.008-.005.014-.008.022a31.569,31.569,0,0,0-1.388,4.531,37.408,37.408,0,0,1-1.14,4.572c-.08.224-.168.444-.262.657H589.132c.041-.218.086-.439.13-.657a44.225,44.225,0,0,1,2.908-9.3c.044-.1.088-.2.138-.3a29.892,29.892,0,0,1,2.376-4.235v0h0a26.2,26.2,0,0,1,1.6-2.122,21.83,21.83,0,0,1,5.165-4.481c.011-.008.025-.014.036-.022a17.34,17.34,0,0,1,12.855-2.558h0C614.459,709.459,614.569,709.484,614.682,709.511Z" transform="translate(-488.829 -541.223)" fill="#e6e6e6"/>
      <path id="Caminho_31" data-name="Caminho 31" d="M626.247,710.368c-.094.025-.188.052-.279.08a27.2,27.2,0,0,0-5.565,2.282c-.088.047-.177.1-.265.146a27.115,27.115,0,0,0-6.564,5.129.009.009,0,0,0,0,.005c-.022.022-.047.047-.066.069-.441.475-.866.969-1.269,1.476a11.8,11.8,0,0,0-1.882,3.154,6.531,6.531,0,0,0-.361,2.983c.008.1.022.2.036.3.011.08.022.16.036.243a14.01,14.01,0,0,1,.408,3.344,4.114,4.114,0,0,1-1.658,2.933,6.571,6.571,0,0,1-1.015.646,10.165,10.165,0,0,1-1.592.657h-1.084l.436-.124a13.286,13.286,0,0,0,1.526-.532,7.422,7.422,0,0,0,.828-.408,4.178,4.178,0,0,0,2.227-2.919,10.834,10.834,0,0,0-.35-3.4c-.033-.193-.063-.383-.08-.574a6.743,6.743,0,0,1,.234-2.886,10.778,10.778,0,0,1,1.755-3.217,23,23,0,0,1,1.512-1.807q.1-.112.207-.224a27.84,27.84,0,0,1,6.68-5.168h0a27.394,27.394,0,0,1,5.822-2.411h0c.091-.028.185-.055.276-.08C626.39,710.015,626.434,710.316,626.247,710.368Z" transform="translate(-500.407 -541.934)" fill="#fff"/>
      <path id="Caminho_32" data-name="Caminho 32" d="M631.849,725.007a4.086,4.086,0,0,1-.286-5.283c.119-.156.367.022.247.178a3.783,3.783,0,0,0,.276,4.913c.136.142-.1.332-.237.191Z" transform="translate(-518.949 -548.889)" fill="#fff"/>
      <path id="Caminho_33" data-name="Caminho 33" d="M621.995,761.638a7.875,7.875,0,0,0,5.416-1.9c.149-.128.34.11.191.237a8.191,8.191,0,0,1-5.64,1.963c-.2-.008-.162-.311.033-.3Z" transform="translate(-512.505 -577.881)" fill="#fff"/>
      <path id="Caminho_34" data-name="Caminho 34" d="M659.609,719.3a2.313,2.313,0,0,0,1.9,1.1c.2.005.162.308-.033.3a2.591,2.591,0,0,1-2.1-1.209.157.157,0,0,1,.023-.214.153.153,0,0,1,.214.023Z" transform="translate(-539.665 -548.585)" fill="#fff"/>
      <circle id="Elipse_1" data-name="Elipse 1" cx="3.311" cy="3.311" r="3.311" transform="translate(118.665 105.816)" fill="#f2f2f2"/>
      <circle id="Elipse_2" data-name="Elipse 2" cx="3.311" cy="3.311" r="3.311" transform="translate(159.796 66.154)" fill="#f2f2f2"/>
      <circle id="Elipse_3" data-name="Elipse 3" cx="3.311" cy="3.311" r="3.311" transform="translate(46.118)" fill="#f2f2f2"/>
      <path id="Path_2960" data-name="Path 2960" d="M226.046,796.274H485.18a.353.353,0,1,0,0-.688H226.046a.353.353,0,1,0,0,.688Z" transform="translate(-227.613 -603.862)" fill="#ccc"/>
      <path id="Caminho_35" data-name="Caminho 35" d="M632.345,227.594A12.579,12.579,0,0,1,613.191,243.4a12.581,12.581,0,1,0,19.154-15.807Z" transform="translate(-506.25 -192.591)" fill="#231f20" opacity="0.2"/>
      <path id="Caminho_36" data-name="Caminho 36" d="M540.133,165.4c10.328,13.353,12.109,32.545.666,45.441-12.786,14.409-50.386,17.555-76.29,42.442a53.364,53.364,0,0,0,1.863,7.659c25.917-27.376,65.734-30.22,78.967-45.134C558.3,201.2,554.3,178.527,540.133,165.4Z" transform="translate(-398.592 -147.556)" fill="#231f20" opacity="0.2"/>
    </g>
    <g id="undraw_address_re_yaoj" transform="translate(-40 566.774)">
      <path id="Caminho_43" data-name="Caminho 43" d="M712.113,552.113a3.549,3.549,0,0,0,1.166-5.316l4.029-7.039-3.681-3.492-5.55,10.021a3.569,3.569,0,0,0,4.035,5.826Z" transform="translate(-495.713 -349.663)" fill="#ffb7b7"/>
      <path id="Caminho_44" data-name="Caminho 44" d="M612.6,594.716h-5.113l-2.433-19.721H612.6Z" transform="translate(-373.544 -324.024)" fill="#ffb7b7"/>
      <path id="Caminho_45" data-name="Caminho 45" d="M756.577,758.3H740.09v-.208a6.417,6.417,0,0,1,6.417-6.417h10.07Z" transform="translate(-516.221 -482.652)" fill="#2f2e41"/>
      <path id="Caminho_46" data-name="Caminho 46" d="M711.874,581.3l-4.509,2.411-11.444-16.245,6.655-3.558Z" transform="translate(-429.646 -317.178)" fill="#ffb7b7"/>
      <path id="Caminho_47" data-name="Caminho 47" d="M876.886,739.248l-14.539,7.773-.1-.184a6.417,6.417,0,0,1,2.633-8.685h0l8.88-4.748Z" transform="translate(-591.171 -471.373)" fill="#2f2e41"/>
      <path id="Caminho_48" data-name="Caminho 48" d="M779.589,552.925l1.145,23.632s2.641.992,1.717,4.825c0,0-1.3,4.416,1.635,4.416s14.4,27.284,14.4,27.284l-7.5,3.8L771.3,588.289l-5.6-19.094-3,21.694-.2,33.491-9.8-1.1-2.8-38.689-1.3-29.492Z" transform="translate(-521.478 -359.948)" fill="#2f2e41"/>
      <path id="Caminho_49" data-name="Caminho 49" d="M585.464,348.963l2.414-17.518,8.364-40.949,15.9.9,7.589,14.637-1.319,28.551,3.036,11.272Z" transform="translate(-361.452 -148.381)" fill="#21897e"/>
      <path id="Caminho_50" data-name="Caminho 50" d="M731.613,453.639l-9.547,18.174-1.5,3.566L716.2,470.2l5.992-21.171s5.421-26.25,14.04-28.922l2.084.34Z" transform="translate(-501.472 -277.952)" fill="#21897e"/>
      <path id="Caminho_51" data-name="Caminho 51" d="M808.306,539.163a3.549,3.549,0,0,0,1.959-5.078l5.05-6.347-3.109-4.01-7.006,9.063a3.569,3.569,0,0,0,3.105,6.371Z" transform="translate(-555.407 -341.923)" fill="#ffb7b7"/>
      <path id="Caminho_52" data-name="Caminho 52" d="M802.432,424.767l2.818-2.7s3.31,1.232,5.694,7.592,10.139,23.58,10.139,23.58l-7.591,15.413-5.119-3.393,2.76-13.573Z" transform="translate(-554.71 -279.158)" fill="#21897e"/>
      <circle id="Elipse_5" data-name="Elipse 5" cx="8.423" cy="8.423" r="8.423" transform="translate(232.807 123.487)" fill="#ffb7b7"/>
      <path id="Caminho_53" data-name="Caminho 53" d="M778.692,368.178l.408-.822-2.055-1.021s-2.267-3.688-6.368-2.652-5.947,1.657-5.947,1.657l-2.049,1.031,1.029,1.023-1.845.62,1.233.613-1.434.824.772,4.226s1.283-3.206,3.748-1.981,6.975-.633,6.975-.633l3.918,7.583s.808-2.658,2.249-1.949C779.326,376.7,783.008,370.835,778.692,368.178Z" transform="translate(-529.54 -243.002)" fill="#2f2e41"/>
    </g>
  </g>
</svg>
