<svg xmlns="http://www.w3.org/2000/svg" width="150" height="150" viewBox="0 0 150 150">
  <g id="Grupo_18" data-name="Grupo 18" transform="translate(-120 -347)">
    <g id="Grupo_2" data-name="Grupo 2">
      <g id="map_white_24dp" transform="translate(120 347)">
        <path id="Caminho_1" data-name="Caminho 1" d="M0,0H150V150H0Z" fill="none"/>
        <path id="Caminho_2" data-name="Caminho 2" d="M103,18.22,53,4.3,3,17.689V125.107l50-15.45,50,13.925,50-13.394V2.77Zm0,91.438L53,95.666V18.286l50,13.991Z" transform="translate(-3 14.542)" fill="#eee"/>
      </g>
    </g>
    <path id="Caminho_58" data-name="Caminho 58" d="M50,0l.4,48.3H0L.4,0Z" transform="translate(169.796 402.046)" fill="none"/>
    <g id="Grupo_2-2" data-name="Grupo 2">
      <g id="map_white_24dp-2" data-name="map_white_24dp" transform="translate(120 347)">
        <path id="Caminho_1-2" data-name="Caminho 1" d="M0,0H150V150H0Z" fill="none"/>
        <path id="Caminho_2-2" data-name="Caminho 2" d="M103,18.22,53,4.3,3,17.689V125.107l50-15.45,50,13.925,50-13.394V2.77Zm0,91.438L53,95.666V18.286l50,13.991Z" transform="translate(-3 14.542)" fill="#eee"/>
      </g>
    </g>
    <path id="Caminho_59" data-name="Caminho 59" d="M12.71,25.1l0-1.6.565-.566A13.791,13.791,0,0,0,18.36,25.6a13.893,13.893,0,0,0,2.953.493,14.3,14.3,0,0,0,3.122-.164,13.472,13.472,0,0,0,4.09-1.373,13.659,13.659,0,0,0,3.384-2.514,13.2,13.2,0,0,0,2.419-3.391,12.321,12.321,0,0,0,1.2-4,12.7,12.7,0,0,0-.706-6.006A13.052,13.052,0,0,0,31.613,3.8,13.65,13.65,0,0,0,26.576.741,14.065,14.065,0,0,0,20.371.1,13.474,13.474,0,0,0,16.25,1.27,13.709,13.709,0,0,0,12.763,3.6a13.292,13.292,0,0,0-2.587,3.248,12.4,12.4,0,0,0-1.419,3.924,12.865,12.865,0,0,0-.177,3,12.565,12.565,0,0,0,.5,2.841,12.807,12.807,0,0,0,1.1,2.608,13.237,13.237,0,0,0,1.634,2.3l-.585.545H9.583L.664,30.675a2.136,2.136,0,0,0-.487.708,2.1,2.1,0,0,0,.47,2.323,2.18,2.18,0,0,0,.727.47,2.288,2.288,0,0,0,1.664,0,2.209,2.209,0,0,0,.732-.47ZM12.727,13a8.753,8.753,0,0,1,.739-3.518,9,9,0,0,1,2-2.863,9.363,9.363,0,0,1,2.969-1.925,9.75,9.75,0,0,1,7.279,0,9.408,9.408,0,0,1,2.976,1.925,9.043,9.043,0,0,1,2.014,2.863,8.809,8.809,0,0,1,.033,7.043,8.995,8.995,0,0,1-2,2.882,9.36,9.36,0,0,1-2.977,1.944,9.749,9.749,0,0,1-7.32,0,9.4,9.4,0,0,1-2.984-1.944,9.038,9.038,0,0,1-2.006-2.882A8.769,8.769,0,0,1,12.727,13Z" transform="translate(178.111 409.974)" fill="#fff"/>
    <path id="Caminho_70" data-name="Caminho 70" d="M12.71,25.1l0-1.6.565-.566A13.791,13.791,0,0,0,18.36,25.6a13.893,13.893,0,0,0,2.953.493,14.3,14.3,0,0,0,3.122-.164,13.472,13.472,0,0,0,4.09-1.373,13.659,13.659,0,0,0,3.384-2.514,13.2,13.2,0,0,0,2.419-3.391,12.321,12.321,0,0,0,1.2-4,12.7,12.7,0,0,0-.706-6.006A13.052,13.052,0,0,0,31.613,3.8,13.65,13.65,0,0,0,26.576.741,14.065,14.065,0,0,0,20.371.1,13.474,13.474,0,0,0,16.25,1.27,13.709,13.709,0,0,0,12.763,3.6a13.292,13.292,0,0,0-2.587,3.248,12.4,12.4,0,0,0-1.419,3.924,12.865,12.865,0,0,0-.177,3,12.565,12.565,0,0,0,.5,2.841,12.807,12.807,0,0,0,1.1,2.608,13.237,13.237,0,0,0,1.634,2.3l-.585.545H9.583L.664,30.675a2.136,2.136,0,0,0-.487.708,2.1,2.1,0,0,0,.47,2.323,2.18,2.18,0,0,0,.727.47,2.288,2.288,0,0,0,1.664,0,2.209,2.209,0,0,0,.732-.47ZM12.727,13a8.753,8.753,0,0,1,.739-3.518,9,9,0,0,1,2-2.863,9.363,9.363,0,0,1,2.969-1.925,9.75,9.75,0,0,1,7.279,0,9.408,9.408,0,0,1,2.976,1.925,9.043,9.043,0,0,1,2.014,2.863,8.809,8.809,0,0,1,.033,7.043,8.995,8.995,0,0,1-2,2.882,9.36,9.36,0,0,1-2.977,1.944,9.749,9.749,0,0,1-7.32,0,9.4,9.4,0,0,1-2.984-1.944,9.038,9.038,0,0,1-2.006-2.882A8.769,8.769,0,0,1,12.727,13Z" transform="translate(178.111 409.974)" fill="#fff"/>
  </g>
</svg>
